<svg width="294" height="82" viewBox="0 0 294 82" fill="none" xmlns="http://www.w3.org/2000/svg">
<path d="M33.2421 35.4158C33.2421 35.4158 35.4921 19.4766 49.0511 23.1297C44.3072 22.6502 36.5351 31.1207 33.2421 35.4158Z" fill="url(#paint0_linear_928_7268)"/>
<path d="M33.2754 35.4142C36.0285 30.3438 42.7024 21.8662 48.8921 23.2453C46.1865 22.6425 39.5411 27.5044 33.2754 35.4142Z" fill="#6AC03D" fill-opacity="0.34"/>
<path d="M31.7599 35.4158C31.7599 35.4158 29.5099 19.4766 15.9508 23.1297C20.6948 22.6502 28.4669 31.1207 31.7599 35.4158Z" fill="url(#paint1_linear_928_7268)"/>
<path d="M31.7266 35.4142C28.9735 30.3438 22.2996 21.8662 16.1098 23.2453C18.8155 22.6425 25.4609 27.5044 31.7266 35.4142Z" fill="#6AC03D" fill-opacity="0.34"/>
<path d="M30.3551 9H32.8149C33.2199 9.03166 34.558 9.34015 34.2733 10.3183C33.9869 11.3022 33.9181 12.9411 34.0518 14.6021C35.0807 14.5811 37.2105 14.5534 38.1196 14.6032C39.0443 14.6538 39.4532 15.574 39.5422 16.0277V18.5602C39.5422 19.6998 38.5938 20.0691 38.1196 20.1114H36.0296C36.0023 20.1019 35.9753 20.091 35.9485 20.0788C33.8636 19.2274 29.6549 16.4951 29.1401 12.0707C28.9524 11.1421 28.9326 9.22793 30.3551 9Z" fill="#438222"/>
<path d="M38.0909 14.5771H34.0488C34.0749 18.1385 35.9293 20.052 36.035 20.1039L38.1376 20.1546C39.1842 20.1546 39.5245 19.3072 39.5401 18.8678V15.9969C39.5401 14.9422 38.5581 14.611 38.0909 14.5771Z" fill="#025F96"/>
<path d="M39.499 18.8655C39.3063 19.9774 38.2787 20.0515 38.1824 20.1045C35.1898 19.0904 34.905 15.9544 35.0666 14.5778H38.0537C39.0943 14.7472 39.4508 15.5662 39.499 15.9544V18.8655Z" fill="#38B6FE" fill-opacity="0.32"/>
<path d="M30.3319 9.00038C26.3921 10.3187 32.8951 19.1918 35.9805 20.1045C32.8999 16.517 31.992 10.8858 32.8002 9.00038H30.3319Z" fill="url(#paint2_linear_928_7268)" fill-opacity="0.15"/>
<path d="M33.016 25.7324H30.5562C30.1512 25.7008 28.8131 25.3923 29.0978 24.4141C29.3842 23.4302 29.453 21.7913 29.3193 20.1303C28.2904 20.1513 26.1606 20.1791 25.2514 20.1293C24.3268 20.0786 23.9178 19.1585 23.8289 18.7047V16.1722C23.8289 15.0326 24.7773 14.6633 25.2514 14.6211H27.3415C27.3688 14.6306 27.3958 14.6414 27.4226 14.6536C29.5075 15.5051 33.7162 18.2373 34.231 22.6618C34.4187 23.5903 34.4385 25.5045 33.016 25.7324Z" fill="#025F96"/>
<path d="M25.2802 20.1553H29.3223C29.2962 16.5939 27.4418 14.6804 27.3361 14.6286L25.2335 14.5779C24.1869 14.5779 23.8466 15.4252 23.831 15.8646V18.7356C23.831 19.7902 24.813 20.1215 25.2802 20.1553Z" fill="#438222"/>
<path d="M23.8281 15.8626C24.0067 14.6507 24.9623 14.5782 25.5357 14.5782C28.7846 14.4993 28.4523 18.7836 28.2896 20.1546H25.283C24.2355 19.9858 23.8766 19.1703 23.8281 18.7836V15.8626Z" fill="url(#paint3_linear_928_7268)" fill-opacity="0.15"/>
<g filter="url(#filter0_d_928_7268)">
<path d="M33.0392 25.732C36.075 24.8194 33.8441 17.2138 27.3906 14.6279C30.4712 18.2154 31.3791 23.8466 30.5709 25.732H33.0392Z" fill="#38B6FE" fill-opacity="0.28" shape-rendering="crispEdges"/>
</g>
<path d="M65.0005 28.9016C40.1006 26.422 32.11 31.8817 34.4791 60.6928C43.327 57.3261 45.5389 45.9719 45.5389 40.7156C60.0829 42.3381 64.5733 33.5156 65.0005 28.9016Z" fill="#1177B3"/>
<path d="M64.9831 28.9268C64.8248 33.3992 60.6635 42.2618 45.5215 40.7685C49.3663 38.3576 57.6731 39.1683 64.9831 28.9268Z" fill="#004A76"/>
<path d="M38.7813 33.9463C34.8416 38.2054 33.3705 46.2135 34.4618 60.6672C43.7179 52.0982 39.1619 34.7575 38.7813 33.9463Z" fill="#004A76" fill-opacity="0.33"/>
<path d="M0.000463486 28.8C24.9003 26.3204 32.891 31.7801 30.5219 60.5913C21.674 57.2245 19.462 45.8703 19.462 40.614C4.91806 42.2365 0.427664 33.4141 0.000463486 28.8Z" fill="#1177B3"/>
<path d="M0.0169373 28.8252C0.175161 33.2976 4.33646 42.1603 19.4785 40.6669C15.6337 38.2561 7.3269 39.0667 0.0169373 28.8252Z" fill="#004A76"/>
<path d="M26.2196 33.8447C30.1594 38.1038 31.6305 46.112 30.5392 60.5656C21.2831 51.9967 25.839 34.656 26.2196 33.8447Z" fill="#004A76" fill-opacity="0.33"/>
<path d="M94.98 33V18.125L89.59 28.94H86.51L81.12 18.125V33H75.38V8.15H81.61L88.05 21.135L94.525 8.15H100.72V33H94.98ZM115.922 33.21C114.149 33.21 112.539 32.8483 111.092 32.125C109.646 31.4017 108.397 30.4567 107.347 29.29C106.321 28.1 105.516 26.7467 104.932 25.23C104.372 23.7133 104.092 22.15 104.092 20.54C104.092 18.9067 104.384 17.3317 104.967 15.815C105.574 14.2983 106.402 12.9683 107.452 11.825C108.526 10.6583 109.786 9.73667 111.232 9.06C112.702 8.36 114.301 8.01 116.027 8.01C117.801 8.01 119.411 8.37167 120.857 9.095C122.304 9.81833 123.541 10.775 124.567 11.965C125.617 13.155 126.422 14.5083 126.982 16.025C127.542 17.5417 127.822 19.0817 127.822 20.645C127.822 22.2783 127.519 23.8533 126.912 25.37C126.329 26.8867 125.512 28.2283 124.462 29.395C123.412 30.5383 122.152 31.46 120.682 32.16C119.236 32.86 117.649 33.21 115.922 33.21ZM109.937 20.61C109.937 21.5667 110.066 22.5 110.322 23.41C110.602 24.2967 110.987 25.09 111.477 25.79C111.991 26.49 112.621 27.05 113.367 27.47C114.137 27.89 115.012 28.1 115.992 28.1C116.996 28.1 117.871 27.8783 118.617 27.435C119.364 26.9917 119.982 26.42 120.472 25.72C120.986 24.9967 121.359 24.1917 121.592 23.305C121.849 22.395 121.977 21.4733 121.977 20.54C121.977 19.5833 121.837 18.6617 121.557 17.775C121.301 16.865 120.916 16.0717 120.402 15.395C119.889 14.695 119.259 14.1467 118.512 13.75C117.766 13.33 116.914 13.12 115.957 13.12C114.954 13.12 114.079 13.3417 113.332 13.785C112.586 14.205 111.956 14.765 111.442 15.465C110.952 16.165 110.579 16.97 110.322 17.88C110.066 18.7667 109.937 19.6767 109.937 20.61ZM129.398 27.155C129.632 27.3417 130.122 27.575 130.868 27.855C131.638 28.135 132.525 28.275 133.528 28.275C134.392 28.275 135.08 28.135 135.593 27.855C136.107 27.5517 136.503 27.0967 136.783 26.49C137.063 25.8833 137.238 25.1133 137.308 24.18C137.402 23.2233 137.448 22.0917 137.448 20.785V8.15H143.188V20.785C143.188 22.675 143.083 24.4017 142.873 25.965C142.687 27.505 142.255 28.8233 141.578 29.92C140.925 31.0167 139.957 31.8683 138.673 32.475C137.39 33.0817 135.675 33.385 133.528 33.385C131.428 33.385 129.632 32.8717 128.138 31.845L129.398 27.155ZM158.1 33.21C156.327 33.21 154.717 32.8483 153.27 32.125C151.823 31.4017 150.575 30.4567 149.525 29.29C148.498 28.1 147.693 26.7467 147.11 25.23C146.55 23.7133 146.27 22.15 146.27 20.54C146.27 18.9067 146.562 17.3317 147.145 15.815C147.752 14.2983 148.58 12.9683 149.63 11.825C150.703 10.6583 151.963 9.73667 153.41 9.06C154.88 8.36 156.478 8.01 158.205 8.01C159.978 8.01 161.588 8.37167 163.035 9.095C164.482 9.81833 165.718 10.775 166.745 11.965C167.795 13.155 168.6 14.5083 169.16 16.025C169.72 17.5417 170 19.0817 170 20.645C170 22.2783 169.697 23.8533 169.09 25.37C168.507 26.8867 167.69 28.2283 166.64 29.395C165.59 30.5383 164.33 31.46 162.86 32.16C161.413 32.86 159.827 33.21 158.1 33.21ZM152.115 20.61C152.115 21.5667 152.243 22.5 152.5 23.41C152.78 24.2967 153.165 25.09 153.655 25.79C154.168 26.49 154.798 27.05 155.545 27.47C156.315 27.89 157.19 28.1 158.17 28.1C159.173 28.1 160.048 27.8783 160.795 27.435C161.542 26.9917 162.16 26.42 162.65 25.72C163.163 24.9967 163.537 24.1917 163.77 23.305C164.027 22.395 164.155 21.4733 164.155 20.54C164.155 19.5833 164.015 18.6617 163.735 17.775C163.478 16.865 163.093 16.0717 162.58 15.395C162.067 14.695 161.437 14.1467 160.69 13.75C159.943 13.33 159.092 13.12 158.135 13.12C157.132 13.12 156.257 13.3417 155.51 13.785C154.763 14.205 154.133 14.765 153.62 15.465C153.13 16.165 152.757 16.97 152.5 17.88C152.243 18.7667 152.115 19.6767 152.115 20.61ZM173.373 33V8.15H179.113V19.35L188.703 8.15H194.653L185.343 19.245L195.283 33H189.228L181.948 22.465L179.113 25.545V33H173.373ZM214.525 27.96V33H197.06V8.15H214.21V13.19H202.8V18.02H212.6V22.675H202.8V27.96H214.525ZM218.08 33V8.15H229.28C230.447 8.15 231.52 8.395 232.5 8.885C233.504 9.375 234.367 10.0167 235.09 10.81C235.814 11.6033 236.374 12.5017 236.77 13.505C237.19 14.5083 237.4 15.5233 237.4 16.55C237.4 17.32 237.307 18.0667 237.12 18.79C236.934 19.49 236.665 20.155 236.315 20.785C235.965 21.415 235.534 21.9867 235.02 22.5C234.53 22.99 233.97 23.41 233.34 23.76L239.045 33H232.57L227.565 24.985H223.82V33H218.08ZM223.82 19.98H229.07C229.747 19.98 230.33 19.665 230.82 19.035C231.31 18.3817 231.555 17.5533 231.555 16.55C231.555 15.5233 231.275 14.7067 230.715 14.1C230.155 13.4933 229.549 13.19 228.895 13.19H223.82V19.98ZM260.189 13.19H252.629V33H246.889V13.19H239.294V8.15H260.189V13.19ZM272.807 33.21C271.034 33.21 269.424 32.8483 267.977 32.125C266.53 31.4017 265.282 30.4567 264.232 29.29C263.205 28.1 262.4 26.7467 261.817 25.23C261.257 23.7133 260.977 22.15 260.977 20.54C260.977 18.9067 261.269 17.3317 261.852 15.815C262.459 14.2983 263.287 12.9683 264.337 11.825C265.41 10.6583 266.67 9.73667 268.117 9.06C269.587 8.36 271.185 8.01 272.912 8.01C274.685 8.01 276.295 8.37167 277.742 9.095C279.189 9.81833 280.425 10.775 281.452 11.965C282.502 13.155 283.307 14.5083 283.867 16.025C284.427 17.5417 284.707 19.0817 284.707 20.645C284.707 22.2783 284.404 23.8533 283.797 25.37C283.214 26.8867 282.397 28.2283 281.347 29.395C280.297 30.5383 279.037 31.46 277.567 32.16C276.12 32.86 274.534 33.21 272.807 33.21ZM266.822 20.61C266.822 21.5667 266.95 22.5 267.207 23.41C267.487 24.2967 267.872 25.09 268.362 25.79C268.875 26.49 269.505 27.05 270.252 27.47C271.022 27.89 271.897 28.1 272.877 28.1C273.88 28.1 274.755 27.8783 275.502 27.435C276.249 26.9917 276.867 26.42 277.357 25.72C277.87 24.9967 278.244 24.1917 278.477 23.305C278.734 22.395 278.862 21.4733 278.862 20.54C278.862 19.5833 278.722 18.6617 278.442 17.775C278.185 16.865 277.8 16.0717 277.287 15.395C276.774 14.695 276.144 14.1467 275.397 13.75C274.65 13.33 273.799 13.12 272.842 13.12C271.839 13.12 270.964 13.3417 270.217 13.785C269.47 14.205 268.84 14.765 268.327 15.465C267.837 16.165 267.464 16.97 267.207 17.88C266.95 18.7667 266.822 19.6767 266.822 20.61ZM90.325 56.43C90.2317 56.3367 89.975 56.1617 89.555 55.905C89.135 55.6483 88.61 55.38 87.98 55.1C87.35 54.82 86.6617 54.575 85.915 54.365C85.1683 54.155 84.4217 54.05 83.675 54.05C82.695 54.05 81.9367 54.225 81.4 54.575C80.8867 54.925 80.63 55.4383 80.63 56.115C80.63 56.535 80.7467 56.885 80.98 57.165C81.2133 57.445 81.54 57.7017 81.96 57.935C82.4033 58.145 82.94 58.3433 83.57 58.53C84.2233 58.7167 84.97 58.9267 85.81 59.16C87 59.4867 88.0733 59.8483 89.03 60.245C89.9867 60.6183 90.8033 61.0967 91.48 61.68C92.1567 62.24 92.67 62.9283 93.02 63.745C93.3933 64.5617 93.58 65.5417 93.58 66.685C93.58 68.085 93.3117 69.275 92.775 70.255C92.2617 71.2117 91.5733 71.9933 90.71 72.6C89.8467 73.1833 88.8433 73.615 87.7 73.895C86.58 74.1517 85.425 74.28 84.235 74.28C83.325 74.28 82.3917 74.21 81.435 74.07C80.5017 73.93 79.58 73.7317 78.67 73.475C77.76 73.195 76.8733 72.8683 76.01 72.495C75.1467 72.1217 74.3533 71.69 73.63 71.2L76.15 66.195C76.2667 66.3117 76.5817 66.5333 77.095 66.86C77.6083 67.1867 78.2383 67.5133 78.985 67.84C79.7317 68.1667 80.5717 68.4583 81.505 68.715C82.4383 68.9717 83.3833 69.1 84.34 69.1C86.37 69.1 87.385 68.4817 87.385 67.245C87.385 66.7783 87.2333 66.3933 86.93 66.09C86.6267 65.7867 86.2067 65.5183 85.67 65.285C85.1333 65.0283 84.5033 64.795 83.78 64.585C83.0567 64.375 82.2633 64.1417 81.4 63.885C80.2567 63.535 79.265 63.1617 78.425 62.765C77.585 62.345 76.885 61.8667 76.325 61.33C75.765 60.7933 75.345 60.175 75.065 59.475C74.8083 58.775 74.68 57.9583 74.68 57.025C74.68 55.7183 74.925 54.5633 75.415 53.56C75.905 52.5567 76.57 51.7167 77.41 51.04C78.25 50.34 79.2183 49.815 80.315 49.465C81.435 49.115 82.6133 48.94 83.85 48.94C84.7367 48.94 85.6 49.0217 86.44 49.185C87.28 49.3483 88.0733 49.5583 88.82 49.815C89.59 50.0717 90.3133 50.3633 90.99 50.69C91.6667 51.0167 92.2733 51.3433 92.81 51.67L90.325 56.43ZM114.412 68.96V74H96.9474V49.15H114.097V54.19H102.687V59.02H112.487V63.675H102.687V68.96H114.412ZM139.353 49.15V74H133.613V63.815H123.708V74H117.968V49.15H123.708V58.775H133.613V49.15H139.353ZM141.665 74L151.22 49.15H155.875L165.395 74H159.305L157.38 68.435H149.645L147.755 74H141.665ZM153.53 55.24L150.555 64.48H156.4L153.53 55.24ZM184.344 54.19H176.784V74H171.044V54.19H163.449V49.15H184.344V54.19Z" fill="#025F96"/>
<defs>
<filter id="filter0_d_928_7268" x="23.3906" y="14.6279" width="14.9873" height="19.1045" filterUnits="userSpaceOnUse" color-interpolation-filters="sRGB">
<feFlood flood-opacity="0" result="BackgroundImageFix"/>
<feColorMatrix in="SourceAlpha" type="matrix" values="0 0 0 0 0 0 0 0 0 0 0 0 0 0 0 0 0 0 127 0" result="hardAlpha"/>
<feOffset dy="4"/>
<feGaussianBlur stdDeviation="2"/>
<feComposite in2="hardAlpha" operator="out"/>
<feColorMatrix type="matrix" values="0 0 0 0 0 0 0 0 0 0 0 0 0 0 0 0 0 0 0.1 0"/>
<feBlend mode="normal" in2="BackgroundImageFix" result="effect1_dropShadow_928_7268"/>
<feBlend mode="normal" in="SourceGraphic" in2="effect1_dropShadow_928_7268" result="shape"/>
</filter>
<linearGradient id="paint0_linear_928_7268" x1="42.7" y1="21.6374" x2="39.1635" y2="36.7972" gradientUnits="userSpaceOnUse">
<stop offset="0.0657633" stop-color="#4D9428"/>
<stop offset="0.82682" stop-color="#438222"/>
</linearGradient>
<linearGradient id="paint1_linear_928_7268" x1="22.302" y1="21.6374" x2="25.8385" y2="36.7972" gradientUnits="userSpaceOnUse">
<stop offset="0.0657633" stop-color="#4D9428"/>
<stop offset="0.82682" stop-color="#438222"/>
</linearGradient>
<linearGradient id="paint2_linear_928_7268" x1="31.7251" y1="19.0144" x2="31.7251" y2="8.87362" gradientUnits="userSpaceOnUse">
<stop stop-color="#446433"/>
<stop offset="0.750949" stop-color="#74E03C"/>
</linearGradient>
<linearGradient id="paint3_linear_928_7268" x1="26.0767" y1="14.6507" x2="26.0767" y2="20.1546" gradientUnits="userSpaceOnUse">
<stop offset="0.397531" stop-color="#8BFF4D"/>
<stop offset="1" stop-color="#446433"/>
</linearGradient>
</defs>
</svg>
